<svg xmlns="http://www.w3.org/2000/svg" viewBox="0 0 2048 2048">
  <defs>
    <linearGradient id="nuzo-gradient" gradientUnits="userSpaceOnUse" x1="1560.68" y1="990.633" x2="487.316" y2="978.356">
      <stop offset="0" stop-color="rgb(0,209,218)"/>
      <stop offset="1" stop-color="rgb(0,153,255)"/>
    </linearGradient>
  </defs>
  <path fill="#0D1117" d="M0 0h2048v2048H0z"/>
  <path transform="translate(1024 1024) scale(1.16) translate(-1024 -1024)" fill="url(#nuzo-gradient)" d="M1248.73 391.098l308.45-.114-.05 1186.426c-28.52-.78-59.89-.14-88.63-.13l-66.55.09c-17.08.01-35.7.75-52.43-2.19-31.48-5.62-60.51-20.68-83.23-43.19-16.04-16.05-38.38-50.44-52.41-70.48l-82.14-117.3-323.579-467.578c1.459 102.152.051 208.108.041 310.598l-.125 390.89-315.493.07-.03-1187.14 180.528.015c21.059-.002 69.264-1.343 87.686 1.463 25.713 3.861 49.488 15.93 67.78 34.407 13.004 12.92 32.653 43.052 44.576 59.509l76.846 105.116 217.44 299.781c26.71 37.237 53.66 74.303 80.85 111.199 1.91-66.751.39-141.194.4-208.326l.07-403.116z"/>
</svg>
